<svg width="538" height="416" xmlns="http://www.w3.org/2000/svg" xmlns:xlink="http://www.w3.org/1999/xlink" overflow="hidden"><g transform="translate(-230 -145)"><path d="M258.167 173.817 258.167 534.9 256.833 534.9 256.833 173.817ZM252.258 181.484 257.5 172.497 262.743 181.484C262.928 181.802 262.821 182.21 262.503 182.396 262.185 182.581 261.776 182.474 261.591 182.156L256.924 174.156 258.076 174.156 253.409 182.156C253.224 182.474 252.816 182.581 252.497 182.396 252.179 182.21 252.072 181.802 252.258 181.484Z" fill="#FFFFFF"/><path d="M1.31669-0.666666 498.8-0.666562 498.8 0.666772 1.31669 0.666667ZM8.98408 5.24252-0.00308994 3.93355e-09 8.98409-5.24252C9.30212-5.42804 9.71033-5.32061 9.89585-5.00258 10.0814-4.68454 9.97395-4.27633 9.65591-4.09081L1.65591 0.575853 1.65591-0.575852 9.65591 4.09082C9.97395 4.27634 10.0814 4.68455 9.89585 5.00258 9.71033 5.32062 9.30212 5.42804 8.98408 5.24252Z" fill="#FFFFFF" transform="matrix(-1 0 0 1 742.3 521.5)"/><path d="M684.5 172.5 684.5 522.1" stroke="#FFFFFF" stroke-width="1.33333" stroke-miterlimit="8" stroke-dasharray="5.33333 4" fill="none" fill-rule="evenodd"/><text fill="#FFFFFF" font-family="Cambria Math,Cambria Math_MSFontService,sans-serif" font-weight="400" font-size="21" transform="translate(678.399 554)">1</text><text fill="#FFFFFF" font-family="Cambria Math,Cambria Math_MSFontService,sans-serif" font-weight="400" font-size="21" transform="translate(235.384 554)">0</text><text fill="#FFFFFF" font-family="Cambria Math,Cambria Math_MSFontService,sans-serif" font-weight="400" font-size="21" transform="translate(753.279 554)">𝜉</text><text fill="#FFFFFF" font-family="Cambria Math,Cambria Math_MSFontService,sans-serif" font-weight="400" font-size="21" transform="translate(233.145 166)">𝐻</text><path d="M0.451416-0.892314 428.051 215.428 427.149 217.212-0.451416 0.892314ZM-1.80567 3.56925C-3.77691 2.57201-4.5665 0.165576-3.56925-1.80567-2.57201-3.77691-0.165576-4.5665 1.80567-3.56925 3.77691-2.57201 4.5665-0.165576 3.56925 1.80567 2.57201 3.77691 0.165576 4.5665-1.80567 3.56925ZM429.406 212.751C431.377 213.748 432.166 216.154 431.169 218.126 430.172 220.097 427.766 220.886 425.794 219.889 423.823 218.892 423.034 216.486 424.031 214.514 425.028 212.543 427.434 211.753 429.406 212.751Z" fill="#FFFFFF" transform="matrix(-1 0 0 1 684.6 246)"/><path d="M684.372 415.974 256.772 315.974 257.228 314.026 684.828 414.026ZM685.511 411.105C687.662 411.608 688.998 413.76 688.495 415.911 687.992 418.062 685.84 419.398 683.689 418.895 681.538 418.392 680.202 416.24 680.705 414.089 681.208 411.938 683.36 410.602 685.511 411.105ZM256.089 318.895C253.938 318.392 252.602 316.24 253.105 314.089 253.608 311.938 255.76 310.602 257.911 311.105 260.062 311.608 261.398 313.76 260.895 315.911 260.392 318.062 258.24 319.398 256.089 318.895Z" fill="#FFFFFF"/><path d="M455.5 360.5 455.5 521.7" stroke="#FFFFFF" stroke-width="1.33333" stroke-miterlimit="8" stroke-dasharray="5.33333 4" fill="none" fill-rule="evenodd"/><text fill="#FFFFFF" font-family="Cambria Math,Cambria Math_MSFontService,sans-serif" font-weight="400" font-size="21" transform="translate(446.7 554)">𝜉</text><text fill="#FFFFFF" font-family="Cambria Math,Cambria Math_MSFontService,sans-serif" font-weight="400" font-size="15" transform="translate(458.073 546)">∗</text></g></svg>