<svg width="663" height="191" xmlns="http://www.w3.org/2000/svg" xmlns:xlink="http://www.w3.org/1999/xlink" overflow="hidden"><g transform="translate(-183 -211)"><path d="M0 0 450.8 0.666667" stroke="#000000" stroke-width="1.33333" stroke-miterlimit="8" fill="none" fill-rule="evenodd" transform="matrix(1 0 0 -1 184.5 295.167)"/><path d="M646.5 293.833 835.982 293.833 835.982 295.167 646.5 295.167ZM828.316 289.258 837.303 294.5 828.316 299.743C827.998 299.928 827.59 299.821 827.404 299.503 827.219 299.185 827.326 298.776 827.644 298.591L835.644 293.924 835.644 295.076 827.644 290.409C827.326 290.224 827.219 289.816 827.404 289.498 827.59 289.18 827.998 289.072 828.316 289.258Z"/><path d="M0 6C-7.00223e-16 2.68629 2.46243 -7.6388e-16 5.5-1.52776e-15 8.53757-3.05552e-15 11 2.68629 11 6 11 9.31371 8.53757 12 5.5 12 2.46243 12-3.50112e-15 9.31371 0 6Z" fill-rule="evenodd" transform="matrix(1 0 0 -1 378 300)"/><path d="M0 6C-7.6388e-16 2.68629 2.68629 -7.6388e-16 6-1.52776e-15 9.31371-3.05552e-15 12 2.68629 12 6 12 9.31371 9.31371 12 6 12 2.68629 12-3.8194e-15 9.31371 0 6Z" stroke="#000000" stroke-width="1.33333" stroke-miterlimit="8" fill="none" fill-rule="evenodd" transform="matrix(1 0 0 -1 634.5 300.5)"/><path d="M551.5 286.5 551.5 303.3" stroke="#000000" stroke-width="1.33333" stroke-miterlimit="8" fill="none" fill-rule="evenodd"/><path d="M479.5 286.5 479.5 303.3" stroke="#000000" stroke-width="1.33333" stroke-miterlimit="8" fill="none" fill-rule="evenodd"/><text font-family="Cambria Math,Cambria Math_MSFontService,sans-serif" font-weight="400" font-size="24" transform="translate(376.725 331)">0</text><text font-family="Cambria Math,Cambria Math_MSFontService,sans-serif" font-weight="400" font-size="24" transform="translate(633.214 331)">𝑏</text><text font-family="Cambria Math,Cambria Math_MSFontService,sans-serif" font-weight="400" font-size="24" transform="translate(469.526 331)">𝑟</text><text font-family="Cambria Math,Cambria Math_MSFontService,sans-serif" font-weight="400" font-size="18" transform="translate(477.665 336)">1</text><text font-family="Cambria Math,Cambria Math_MSFontService,sans-serif" font-weight="400" font-size="24" transform="translate(543.269 331)">𝑟</text><text font-family="Cambria Math,Cambria Math_MSFontService,sans-serif" font-weight="400" font-size="18" transform="translate(551.962 336)">2</text><path d="M640.5 352.5C640.5 356.642 624.33 360 604.383 360L548.117 360C528.17 360 512 363.358 512 367.5 512 363.358 495.83 360 475.883 360L419.617 360C399.67 360 383.5 356.642 383.5 352.5" stroke="#000000" stroke-width="1.33333" stroke-miterlimit="8" fill="none" fill-rule="evenodd"/><path d="M521.24 377.244 523.045 377.244 523.045 399.052 521.24 399.052ZM500.12 377.244 501.925 377.244 501.925 399.052 500.12 399.052Z" fill-rule="evenodd"/><text font-family="Cambria Math,Cambria Math_MSFontService,sans-serif" font-weight="400" font-size="24" transform="translate(504.819 395)">𝑏</text><path d="M0 0C3.86599-6.87492e-15 7 8.05887 7 18L7 18C7 27.9411 10.134 36 14 36 10.134 36 7 44.0589 7 54L7 54C7 63.9411 3.86599 72-1.14582e-15 72" stroke="#000000" stroke-width="1.33333" stroke-miterlimit="8" fill="none" fill-rule="evenodd" transform="matrix(-1.83697e-16 -1 -1 1.83697e-16 551.5 265.5)"/><path d="M551.982 216.656 553.786 216.656 553.786 238.464 551.982 238.464ZM476.568 216.656 478.373 216.656 478.373 238.464 476.568 238.464Z" fill-rule="evenodd"/><text font-family="Cambria Math,Cambria Math_MSFontService,sans-serif" font-weight="400" font-size="24" transform="translate(481.267 234)">𝑟</text><text font-family="Cambria Math,Cambria Math_MSFontService,sans-serif" font-weight="400" font-size="18" transform="translate(489.96 239)">2</text><text font-family="Cambria Math,Cambria Math_MSFontService,sans-serif" font-weight="400" font-size="24" transform="translate(506.454 234)">−</text><text font-family="Cambria Math,Cambria Math_MSFontService,sans-serif" font-weight="400" font-size="24" transform="translate(529.787 234)">𝑟</text><text font-family="Cambria Math,Cambria Math_MSFontService,sans-serif" font-weight="400" font-size="18" transform="translate(537.927 239)">1</text></g></svg>