<svg width="663" height="54" xmlns="http://www.w3.org/2000/svg" xmlns:xlink="http://www.w3.org/1999/xlink" overflow="hidden"><g transform="translate(-183 -284)"><path d="M0 0 462 0.666667" stroke="#FFFFFF" stroke-width="1.33333" stroke-miterlimit="8" fill="none" fill-rule="evenodd" transform="matrix(1 0 0 -1 184.5 295.167)"/><path d="M646.5 293.833 835.982 293.833 835.982 295.167 646.5 295.167ZM828.316 289.258 837.303 294.5 828.316 299.743C827.998 299.928 827.59 299.821 827.404 299.503 827.219 299.185 827.326 298.776 827.644 298.591L835.644 293.924 835.644 295.076 827.644 290.409C827.326 290.224 827.219 289.816 827.404 289.498 827.59 289.18 827.998 289.072 828.316 289.258Z" fill="#FFFFFF"/><path d="M0 6C-7.00223e-16 2.68629 2.46243 -7.6388e-16 5.5-1.52776e-15 8.53757-3.05552e-15 11 2.68629 11 6 11 9.31371 8.53757 12 5.5 12 2.46243 12-3.50112e-15 9.31371 0 6Z" stroke="#FFFFFF" stroke-width="1.33333" stroke-miterlimit="8" fill="#FFFFFF" fill-rule="evenodd" transform="matrix(1 0 0 -1 501.5 300.5)"/><path d="M413.5 286.5 413.5 303.3" stroke="#FFFFFF" stroke-width="1.33333" stroke-miterlimit="8" fill="none" fill-rule="evenodd"/><text fill="#FFFFFF" font-family="Cambria Math,Cambria Math_MSFontService,sans-serif" font-weight="400" font-size="24" transform="translate(500.058 331)">0</text><text fill="#FFFFFF" font-family="Cambria Math,Cambria Math_MSFontService,sans-serif" font-weight="400" font-size="24" transform="translate(396.739 331)">−</text><text fill="#FFFFFF" font-family="Cambria Math,Cambria Math_MSFontService,sans-serif" font-weight="400" font-size="24" transform="translate(414.739 331)">𝑏</text><path d="M328.5 286.5 328.5 303.3" stroke="#FFFFFF" stroke-width="1.33333" stroke-miterlimit="8" fill="none" fill-rule="evenodd"/><text fill="#FFFFFF" font-family="Cambria Math,Cambria Math_MSFontService,sans-serif" font-weight="400" font-size="24" transform="translate(305.241 330)">−</text><text fill="#FFFFFF" font-family="Cambria Math,Cambria Math_MSFontService,sans-serif" font-weight="400" font-size="24" transform="translate(323.241 330)">2𝑏</text><path d="M243.5 286.5 243.5 303.3" stroke="#FFFFFF" stroke-width="1.33333" stroke-miterlimit="8" fill="none" fill-rule="evenodd"/><text fill="#FFFFFF" font-family="Cambria Math,Cambria Math_MSFontService,sans-serif" font-weight="400" font-size="24" transform="translate(220.711 330)">−</text><text fill="#FFFFFF" font-family="Cambria Math,Cambria Math_MSFontService,sans-serif" font-weight="400" font-size="24" transform="translate(238.711 330)">3𝑏</text><path d="M752.5 285.5 752.5 302.3" stroke="#FFFFFF" stroke-width="1.33333" stroke-miterlimit="8" fill="none" fill-rule="evenodd"/><text fill="#FFFFFF" font-family="Cambria Math,Cambria Math_MSFontService,sans-serif" font-weight="400" font-size="24" transform="translate(738.069 330)">3𝑏</text><path d="M667.5 285.5 667.5 302.3" stroke="#FFFFFF" stroke-width="1.33333" stroke-miterlimit="8" fill="none" fill-rule="evenodd"/><text fill="#FFFFFF" font-family="Cambria Math,Cambria Math_MSFontService,sans-serif" font-weight="400" font-size="24" transform="translate(654.156 330)">2𝑏</text><path d="M582.5 285.5 582.5 302.3" stroke="#FFFFFF" stroke-width="1.33333" stroke-miterlimit="8" fill="none" fill-rule="evenodd"/><text fill="#FFFFFF" font-family="Cambria Math,Cambria Math_MSFontService,sans-serif" font-weight="400" font-size="24" transform="translate(575.453 330)">𝑏</text></g></svg>